<svg id="Layer_1" data-name="Layer 1" xmlns="http://www.w3.org/2000/svg" viewBox="0 0 1080 1080"><defs><style>.cls-1{fill:#2589bd;}.cls-2{fill:#d64933;}</style></defs><title>Artboard 1 copy 18</title><path class="cls-1" d="M277.86,451a50.3,50.3,0,0,0-33.17,12.41l5.1,5.1a43.55,43.55,0,0,1,56.13,0l5.1-5.1A50.3,50.3,0,0,0,277.86,451Z"/><path class="cls-1" d="M234.39,453.07l5.18,5.18a57.69,57.69,0,0,1,76.58,0l5.17-5.18a65.2,65.2,0,0,0-86.93,0Z"/><path class="cls-1" d="M194.61,503.21,189.43,498a65.28,65.28,0,0,0,0,86.93l5.18-5.18a57.69,57.69,0,0,1,0-76.58Z"/><path class="cls-1" d="M199.73,508.33a50.5,50.5,0,0,0,0,66.34l5.1-5.1a43.54,43.54,0,0,1,0-56.13Z"/><path class="cls-1" d="M277.86,639.29a57.46,57.46,0,0,1-38.29-14.54l-5.18,5.18a65.2,65.2,0,0,0,86.93,0l-5.17-5.18A57.48,57.48,0,0,1,277.86,639.29Z"/><path class="cls-1" d="M277.86,632.05A50.31,50.31,0,0,0,311,619.63l-5.1-5.1a43.54,43.54,0,0,1-56.13,0l-5.1,5.1A50.31,50.31,0,0,0,277.86,632.05Z"/><path class="cls-1" d="M366.29,498l-5.18,5.17a57.72,57.72,0,0,1,0,76.58l5.17,5.18A65.29,65.29,0,0,0,366.29,498Z"/><path class="cls-1" d="M356,508.33l-5.1,5.11a43.54,43.54,0,0,1,0,56.13l5.1,5.1a50.5,50.5,0,0,0,0-66.34Z"/><path class="cls-2" d="M274.73,508.16a214.73,214.73,0,0,0-30.43,30.46c-2.81-3.16-5.78-6.27-8.48-9.59A53.11,53.11,0,0,1,226,511.4c-.5-1.6-.76-3.28-1.17-4.91-.73-2.93.5-5.29,2.48-7.36,2.64-2.74,5.36-5.41,8.07-8.08a8.18,8.18,0,0,1,7.72-2.57A46.49,46.49,0,0,1,259,495C264.52,498.41,271.75,504.47,274.73,508.16Z"/><path class="cls-2" d="M288.05,503.36a16.61,16.61,0,0,1-6.86,1.43c.55.65.76.92,1,1.16q8.19,8.19,16.41,16.35a3.93,3.93,0,0,0,1.3.82,6.67,6.67,0,0,1,4.25,4.33,3.31,3.31,0,0,0,.76,1.2q8.86,9.36,17.78,18.69a22.86,22.86,0,0,0,2.39,1.83,25.43,25.43,0,0,1,6.3,7.11,28.77,28.77,0,0,1,3.63,9.35,26.68,26.68,0,0,1,.39,5.32c-2.46-3.93-6.07-6.2-10-8.14a15,15,0,0,1-3.49-3c-2-1.92-3.92-3.9-6.17-5.81-1.57,6.43-6.1,10.57-10.4,14.85s-8.39,8.92-15,10.24c2.05,2.24,3.86,4.24,5.69,6.23a25.45,25.45,0,0,1,4.46,6.11,15.85,15.85,0,0,0,6.45,7.11,3.84,3.84,0,0,1,.53.52c-.79,0-1.39.1-2,.06a25.43,25.43,0,0,1-9.9-2.45c-4.28-2.15-8.3-4.72-10.78-9.07a5.51,5.51,0,0,0-1-1.21q-9.43-9-18.9-17.95a2.47,2.47,0,0,0-1-.62,6.4,6.4,0,0,1-4.47-4.42,2.86,2.86,0,0,0-.6-1q-8.5-8.54-17-17a3.63,3.63,0,0,0-.54-.33c-.09.53-.18.94-.24,1.36-.24,1.57-.39,3.16-.74,4.7a.63.63,0,0,1-1.2,0A10.84,10.84,0,0,1,238,548.3a1.94,1.94,0,0,1,1.24-2.44c.7-.27.62-2.31,0-2.9-2.24-2-4.59-4-6.74-6.08q-4.65-4.64-9.06-9.52c-3.33-3.7-3.23-8.31-3-12.91a100,100,0,0,0,21,27.5l.28-.24-.93-.94A114.42,114.42,0,0,1,222.2,517c-2.39-4.12-1.11-7.39.79-10.88.35-.65,2.56-4.75,3-5.43a36.72,36.72,0,0,1-1.46,3.89,43.28,43.28,0,0,0,8.95,20.5c3.33,4.39,7.19,8.37,10.76,12.57a4.22,4.22,0,0,1,.89,1.9,3.93,3.93,0,0,0,1.82,2.76l11.54,7.58a69,69,0,0,1,27.78-27.75c-1-1.46-2.24-3.1-3.37-4.78-1.39-2.07-2.74-4.18-4.07-6.29a4.1,4.1,0,0,0-3.47-2.24,2.7,2.7,0,0,1-1.47-.9c-5.87-5.83-12.08-11.21-19.46-15.11-4.33-2.28-9.87-3.17-15-3.81.46-.41-2.13.54-1.8.33.66-.43,5.21-2.88,5.9-3.26a9.38,9.38,0,0,1,10.19.05,113.16,113.16,0,0,1,23.34,18.25,3.59,3.59,0,0,0,1.1.86,87.15,87.15,0,0,0-12.69-11.82,82.06,82.06,0,0,0-15-9.35l1.93-.15c6.11-.46,11,2,15.08,6.35,3.83,4.05,7.66,8.1,11.38,12.23a2.59,2.59,0,0,0,2.9.77c.16,0,.41-.11.44-.21.33-1.18,1.21-1.39,2.25-1.37A4.17,4.17,0,0,1,288.05,503.36Zm-7.21,3.95-1.94-.76c0,.69,0,1.39-.06,2.08a1.27,1.27,0,0,0,.1.37,42.23,42.23,0,0,0,3.12,6.15,247.94,247.94,0,0,0,25.75,30,50.41,50.41,0,0,0,10.72,8.66c3,1.71,6.3,3,9.49,4.42.37.17.9,0,1.35-.07l-.08-1.06v.06a4.14,4.14,0,0,0-.51-.87c-2.1-2.36-4.19-4.73-6.33-7-6.12-6.59-12.16-13.26-18.43-19.7-6.73-6.91-13.68-13.6-20.57-20.36A21.8,21.8,0,0,0,280.84,507.31Zm-35.71,35.16a1.17,1.17,0,0,0-.37-.13c-.7,0-1.4,0-2.1,0a6.37,6.37,0,0,0,.64,2c1.88,2.31,3.75,4.64,5.81,6.78,13.61,14.18,28.14,27.39,42.61,40.67a10,10,0,0,0,1.55,1.21,1.3,1.3,0,0,0,1.08.09,1.13,1.13,0,0,0,.28-1c-.3-1-.72-2-1.09-2.93v.06a31.66,31.66,0,0,0-5-9.42c-5-7-11.43-12.69-17.79-18.39-4.21-3.77-8.61-7.31-13-10.88-1.78-1.46-3.71-2.74-5.57-4.1Zm34.93,25.87-.26.3c3,3,6,6,9,9,.33.32.92.74,1.25.65,2.93-.81,5.79-1.85,8-4,4-4,8-8,12-12a19.54,19.54,0,0,0,3.81-6.23c.89-2,.74-3.51-1.2-4.72a8.83,8.83,0,0,1-1.34-1.26A258.26,258.26,0,0,1,287.87,524c-.47-.6-.91-.84-1.64-.43-2.28,1.29-4.85,2.23-6.82,3.89-3.75,3.15-7.19,6.68-10.71,10.1s-6.89,7.35-8.75,12.19a1.38,1.38,0,0,0,.48,1.86Q270.27,560,280.06,568.34Z"/><path class="cls-2" d="M299.86,589.17c2.56.6,4.21-.82,5.79-2.07a99.65,99.65,0,0,0,18.49-18.78c1-1.34,1.88-2.78,1.34-4.76,3.77,1.78,7.09,3.84,9,7.51a3.63,3.63,0,0,1,.25,2.45,25.79,25.79,0,0,1-6.09,10.16c-4.19,4.61-8.42,9.2-13.79,12.49a45.85,45.85,0,0,1-4.86,2.28,2.77,2.77,0,0,1-2.73-.25C303.75,596.16,301.67,592.94,299.86,589.17Z"/><path class="cls-2" d="M252.18,546.41c.42.38.84.77,1.27,1.14a4.33,4.33,0,0,0,1.36.84c-3.35-1.76-6.69-3.53-10.05-5.28a5.12,5.12,0,0,0-1.26-.17,8.32,8.32,0,0,0,.69,1q10.35,10.74,20.71,21.49a1.61,1.61,0,0,0,2,.46c1.74-.66,3.51-1.25,5.62-2l-7.27-6.67.15-.16,8.76,7.66c-1.73,1-3.19,1.88-4.73,2.62-2.76,1.33-1.88,1.42-3.92-.6q-8.84-8.75-17.57-17.58a65.66,65.66,0,0,1-4.27-5,5.7,5.7,0,0,1-.64-1.6l1.5,0c.21,0,.42,0,.63-.07Z"/><path class="cls-2" d="M293.54,589.14c.26.91.54,1.82.75,2.74a2.9,2.9,0,0,1-.09,1c-.32-.07-.72,0-.95-.22a28,28,0,0,1-2.21-1.87l-22.5-21c-.28-.26-.54-.53-.84-.83l6.72-3.73a.87.87,0,0,1,.31.16c7.06,6.66,14,13.44,18.08,22.48.21.46.49.9.73,1.35Zm-.28,2.63.36-.34c-4.31-9.48-10.09-17.87-18.17-24.55l-5.66,3.33Z"/><path class="cls-2" d="M280.18,568.75c-6.41-5.41-12.79-10.84-19.23-16.21-.81-.68-1.74-2-1.17-3,1.67-3.13,2.9-6.08,5.47-8.61,4.73-4.65,9.48-9.69,14.75-13.85,1.82-1.67,4.41-2.31,6.54-3.64.73-.45,1.41.17,1.85.75,7.55,9.92,16.58,18.87,25.53,27.5a3.14,3.14,0,0,1,.91,2.54c-1,2.74-1.53,5.14-3.65,7.26-4.25,4.24-8.3,8.51-12.56,12.74-2.13,2.12-5.93,3.62-8.68,4.51-.4.13-1.41-1.09-1.72-1.39-2.79-2.72-5.54-5.5-8.3-8.26Z"/><path class="cls-2" d="M329.29,557.12c0,1-.53,1-1.38.78a37.51,37.51,0,0,1-13.27-7.28c-4.46-3.8-8.57-8-12.83-12.06a2.4,2.4,0,0,1-.32-.45l3.59-6.44c2.92,2.92,5.92,5.8,8.78,8.81,4.23,4.45,8.35,9,12.52,13.5,1,1.06,1.94,2.13,2.91,3.2Zm-26.1-18c6.71,8.09,15.1,13.87,24.57,18.18l.34-.37-21.55-23.45Z"/><path class="cls-2" d="M739.59,517.75A21.58,21.58,0,1,1,718,496.17,21.58,21.58,0,0,1,739.59,517.75ZM717.9,487a30.53,30.53,0,1,0,0,61c33.43,0,30.53,3.5,30.53-30.53A30.52,30.52,0,0,0,717.9,487Z"/><path class="cls-2" d="M472.3,531.89A4.19,4.19,0,0,1,475,531a4.29,4.29,0,0,1,4.29,4.28,4.24,4.24,0,0,1-1.6,3.33h0a44,44,0,1,1-.9-69.66,4.37,4.37,0,0,1,1.95,3.53,4,4,0,0,1-4,4,5.21,5.21,0,0,1-2.65-1.32,35.19,35.19,0,1,0,.36,56.61"/><path class="cls-2" d="M605.18,488.29a4,4,0,0,1,1.57,2.45,3.27,3.27,0,0,1-.61,2.38,3.24,3.24,0,0,1-1.75,1.13,4.3,4.3,0,0,1-2.06,0,21.17,21.17,0,0,0-6.26-.92,24.76,24.76,0,0,0-7.11,1.19,17.84,17.84,0,0,0-5.93,3.71,22.88,22.88,0,0,0-7.23,17.11c.06,9.22.12,18.88.17,27.85a5,5,0,0,1-6,4.83,5,5,0,0,1-3.89-5V491.22a5.07,5.07,0,0,1,3.85-5,4.95,4.95,0,0,1,6,4.82v3.49A26.77,26.77,0,0,1,593.39,486C597.75,485.58,603.46,486.85,605.18,488.29Z"/><path class="cls-2" d="M869.85,503.72a14,14,0,0,1,1.7,3.71,13.71,13.71,0,0,1,.53,4l0,9.94,0,13.27.07-10.1-.07,10.1-.07,8.49a4.73,4.73,0,0,0,4.39,5h.74a4.71,4.71,0,0,0,4.46-4.91l.19-25.13.06-8.08a10.06,10.06,0,0,0-.17-2.12c-.07-.4-.16-.79-.26-1.19-2.6-11.06-11.62-18.92-22.34-19.21-7.65-.21-14.45,1.25-18.66,7.66l.24-28.36a4.74,4.74,0,0,0-4.39-5h-.74a4.71,4.71,0,0,0-4.47,4.89l-.58,76.45a4.74,4.74,0,0,0,4.4,5h.73a4.73,4.73,0,0,0,4.47-4.91l.11-15.06,0-6.81.07-8.46a13.43,13.43,0,0,1,1.21-5.58c2.85-6.14,8.6-10.32,15.22-10.32a14.4,14.4,0,0,1,6,.93A14.85,14.85,0,0,1,869.85,503.72Z"/><path class="cls-2" d="M687.37,467.07a4.78,4.78,0,0,1-.4,2L653.7,545.2a6.18,6.18,0,0,1-10.49,0L609.93,469a4.94,4.94,0,0,1,9.06-3.95l29.47,67.46,29.46-67.46a4.93,4.93,0,0,1,9.45,2Z"/><path class="cls-2" d="M772.15,518.25v.3c0,13.2,9.84,21,21.18,21.64a21.85,21.85,0,0,0,14.16-4.05,3.71,3.71,0,0,1,1.8-.9c2.61,0,4,2.64,3.78,4.5a3.23,3.23,0,0,1-1.33,2.4,29.91,29.91,0,1,1,0-47.78,3.27,3.27,0,0,1,1.33,2.4c.17,1.87-1.66,4.69-4.27,4.63a3.54,3.54,0,0,1-1.8-.9,21.9,21.9,0,0,0-14.16-4.05c-11.34.61-20.69,8.31-20.69,21.51Z"/><path class="cls-2" d="M552.7,517.53c0,34,2.91,30.53-30.52,30.53a30.53,30.53,0,1,1,30.52-30.53Zm-30.41-21.36a21.58,21.58,0,1,0,21.58,21.58A21.58,21.58,0,0,0,522.29,496.17Z"/><path class="cls-1" d="M416.47,607.78v19.81a3,3,0,0,1-.89,2.22,3.11,3.11,0,0,1-5.32-2.22V579.43a3,3,0,0,1,3.11-3.11H446a3,3,0,0,1,3.1,3.11,3,3,0,0,1-3.1,3.1H416.47v19H441a3,3,0,0,1,2.21.89,3.11,3.11,0,0,1-2.21,5.32Z"/><path class="cls-1" d="M465.37,627.76a2.94,2.94,0,1,1-5.88,0V578.48a2.94,2.94,0,1,1,5.88,0Z"/><path class="cls-1" d="M481,614.39a13.89,13.89,0,0,0,1.71,4,12.12,12.12,0,0,0,2.87,3.18,14.39,14.39,0,0,0,3.81,2.1,12.59,12.59,0,0,0,4.43.78,12.73,12.73,0,0,0,5.13-1,13.55,13.55,0,0,0,4.19-2.84A3.13,3.13,0,0,1,507.6,625a20.63,20.63,0,0,1-6.22,4.16,18.72,18.72,0,0,1-7.53,1.51,19,19,0,0,1-7.58-1.51,19.45,19.45,0,0,1-10.33-10.34,19.76,19.76,0,0,1,0-15.15,19.48,19.48,0,0,1,10.33-10.33,19.76,19.76,0,0,1,15.15,0,19.45,19.45,0,0,1,10.34,10.33,19.07,19.07,0,0,1,1.51,7.58,3.06,3.06,0,0,1-3.11,3.11Zm25.64-6.22a13.61,13.61,0,0,0-1.75-4A13.1,13.1,0,0,0,502,601a13.8,13.8,0,0,0-3.76-2.1,13,13,0,0,0-8.86,0,14.39,14.39,0,0,0-3.81,2.1,12.12,12.12,0,0,0-2.87,3.18,13.78,13.78,0,0,0-1.71,4Z"/><path class="cls-1" d="M527.93,614.39a13.89,13.89,0,0,0,1.71,4,12,12,0,0,0,2.87,3.18,14.39,14.39,0,0,0,3.81,2.1,13,13,0,0,0,9.55-.27,13.48,13.48,0,0,0,4.2-2.84A3.13,3.13,0,0,1,554.5,625a20.75,20.75,0,0,1-6.22,4.16,18.72,18.72,0,0,1-7.53,1.51,19,19,0,0,1-7.58-1.51,19.45,19.45,0,0,1-10.33-10.34,19.64,19.64,0,0,1,0-15.15,19.48,19.48,0,0,1,10.33-10.33,19.76,19.76,0,0,1,15.15,0,19.39,19.39,0,0,1,10.33,10.33,19.08,19.08,0,0,1,1.52,7.58,3.06,3.06,0,0,1-3.11,3.11Zm25.64-6.22a13.61,13.61,0,0,0-1.75-4,13.1,13.1,0,0,0-2.88-3.18,13.71,13.71,0,0,0-3.77-2.1,12.94,12.94,0,0,0-8.85,0,14.39,14.39,0,0,0-3.81,2.1,12,12,0,0,0-2.87,3.18,13.78,13.78,0,0,0-1.71,4Z"/><path class="cls-1" d="M577.44,619.05a5.45,5.45,0,0,0,5.44,5.44,5.3,5.3,0,0,0,3.88-1.64,2.93,2.93,0,0,1,2.14-.85,3.2,3.2,0,0,1,2.21.85,3.1,3.1,0,0,1,0,4.43,11.88,11.88,0,0,1-3.69,2.49,11.57,11.57,0,0,1-9.09,0,11.68,11.68,0,0,1-6.18-6.18,11.24,11.24,0,0,1-.93-4.54V579.43a3.11,3.11,0,1,1,6.22,0v12.43H586a3.13,3.13,0,0,1,2.22,5.32,3,3,0,0,1-2.22.89h-8.54Z"/></svg>